HIERARCHY
ROOT Hips
{
	OFFSET 0.000000 0.000000 0.000000
	CHANNELS 6 Xposition Yposition Zposition Zrotation Yrotation Xrotation 
	JOINT LHipJoint
	{
		OFFSET 0.000000 0.000000 0.000000
		CHANNELS 3 Zrotation Yrotation Xrotation
		JOINT LeftUpLeg
		{
			OFFSET 1.363060 -1.794630 0.839290
			CHANNELS 3 Zrotation Yrotation Xrotation
			JOINT LeftLeg
			{
				OFFSET 2.448110 -6.726130 0.000000
				CHANNELS 3 Zrotation Yrotation Xrotation
				JOINT LeftFoot
				{
					OFFSET 2.562200 -7.039590 0.000000
					CHANNELS 3 Zrotation Yrotation Xrotation
					JOINT LeftToeBase
					{
						OFFSET 0.157640 -0.433110 2.322550
						CHANNELS 3 Zrotation Yrotation Xrotation
						End Site
						{
							OFFSET 0.000000 0.000000 0.000000
						}
					}
				}
			}
		}
	}
	JOINT RHipJoint
	{
		OFFSET 0.000000 0.000000 0.000000
		CHANNELS 3 Zrotation Yrotation Xrotation
		JOINT RightUpLeg
		{
			OFFSET -1.305520 -1.794630 0.839290
			CHANNELS 3 Zrotation Yrotation Xrotation
			JOINT RightLeg
			{
				OFFSET -2.542530 -6.985550 0.000000
				CHANNELS 3 Zrotation Yrotation Xrotation
				JOINT RightFoot
				{
					OFFSET -2.568260 -7.056230 0.000000
					CHANNELS 3 Zrotation Yrotation Xrotation
					JOINT RightToeBase
					{
						OFFSET -0.164730 -0.452590 2.363150
						CHANNELS 3 Zrotation Yrotation Xrotation
						End Site
						{
							OFFSET 0.000000 0.000000 0.000000
						}
					}
				}
			}
		}
	}
	JOINT LowerBack
	{
		OFFSET 0.000000 0.000000 0.000000
		CHANNELS 3 Zrotation Yrotation Xrotation
		JOINT Spine
		{
			OFFSET 0.028270 2.035590 -0.193380
			CHANNELS 3 Zrotation Yrotation Xrotation
			JOINT Spine1
			{
				OFFSET 0.056720 2.048850 -0.042750
				CHANNELS 3 Zrotation Yrotation Xrotation
				JOINT Neck
				{
					OFFSET 0.000000 0.000000 0.000000
					CHANNELS 3 Zrotation Yrotation Xrotation
					JOINT Neck1
					{
						OFFSET -0.054170 1.746240 0.172020
						CHANNELS 3 Zrotation Yrotation Xrotation
						JOINT Head
						{
							OFFSET 0.104070 1.761360 -0.123970
							CHANNELS 3 Zrotation Yrotation Xrotation
							End Site
							{
								OFFSET 0.000000 0.000000 0.000000
							}
						}
					}
				}
				JOINT LeftShoulder
				{
					OFFSET 0.000000 0.000000 0.000000
					CHANNELS 3 Zrotation Yrotation Xrotation
					JOINT LeftArm
					{
						OFFSET 3.362410 1.200890 -0.311210
						CHANNELS 3 Zrotation Yrotation Xrotation
						JOINT LeftForeArm
						{
							OFFSET 4.983000 -0.000000 -0.000000
							CHANNELS 3 Zrotation Yrotation Xrotation
							JOINT LeftHand
							{
								OFFSET 3.483560 -0.000000 -0.000000
								CHANNELS 3 Zrotation Yrotation Xrotation
								JOINT LeftFingerBase
								{
									OFFSET 0.000000 0.000000 0.000000
									CHANNELS 3 Zrotation Yrotation Xrotation
									JOINT LeftHandIndex1
									{
										OFFSET 0.715260 -0.000000 -0.000000
										CHANNELS 3 Zrotation Yrotation Xrotation
										End Site
										{
											OFFSET 0.000000 0.000000 0.000000
										}
									}
								}
								JOINT LThumb
								{
									OFFSET 0.000000 0.000000 0.000000
									CHANNELS 3 Zrotation Yrotation Xrotation
									End Site
									{
										OFFSET 0.000000 0.000000 0.000000
									}
								}
							}
						}
					}
				}
				JOINT RightShoulder
				{
					OFFSET 0.000000 0.000000 0.000000
					CHANNELS 3 Zrotation Yrotation Xrotation
					JOINT RightArm
					{
						OFFSET -3.136600 1.374050 -0.404650
						CHANNELS 3 Zrotation Yrotation Xrotation
						JOINT RightForeArm
						{
							OFFSET -5.241900 -0.000000 -0.000000
							CHANNELS 3 Zrotation Yrotation Xrotation
							JOINT RightHand
							{
								OFFSET -3.444170 -0.000000 -0.000000
								CHANNELS 3 Zrotation Yrotation Xrotation
								JOINT RightFingerBase
								{
									OFFSET 0.000000 0.000000 0.000000
									CHANNELS 3 Zrotation Yrotation Xrotation
									JOINT RightHandIndex1
									{
										OFFSET -0.622530 -0.000000 -0.000000
										CHANNELS 3 Zrotation Yrotation Xrotation
										End Site
										{
											OFFSET 0.000000 0.000000 0.000000
										}
									}
								}
								JOINT RThumb
								{
									OFFSET 0.000000 0.000000 0.000000
									CHANNELS 3 Zrotation Yrotation Xrotation
									End Site
									{
										OFFSET 0.000000 0.000000 0.000000
									}
								}
							}
						}
					}
				}
			}
		}
	}
}
MOTION
Frames: 11
Frame Time: 0.008333
3.758661 17.303877 1.208846 179.430330 -78.698234 -168.638544 -11.626427 2.692537 0.616229 -6.538517 20.740503 -16.773134 -2.797693 -0.805097 -1.038549 0.685075 5.155484 2.777727 1.023200 0.000001 -34.132501 9.387106 -1.090656 3.000543 1.574479 -1.308215 -13.116611 2.481388 1.765384 -1.725923 -0.183114 -2.891172 3.409258 -1.280700 0.000000 -41.409500 0.045370 -5.449295 -4.892518 -0.343245 -5.599987 -3.862229 -7.661434 -5.513118 -2.469519 11.795259 -5.931970 -0.249576 -2.106480 -0.254553 2.100323 0.000000 0.000000 0.000000 17.785255 -3.993696 1.037657 8.761012 -69.734505 -75.464377 3.435928 -3.523226 -0.104924 14.017919 0.031946 -0.050239 -0.270414 0.426878 -0.000000 0.000000 0.000000 0.000000 0.000000 0.000000 0.000000 2.569159 -3.767805 -4.997117 92.119743 24.145912 39.878785 -178.142653 57.534184 179.871241 -10.168482 10.434621 -1.025939 0.140440 -0.894937 -0.000000 0.000000 0.000000 0.000000 0.000000 0.000000 0.000000 
3.743733 17.309179 1.200097 178.287212 -78.908880 -167.429296 -11.653957 2.696332 0.634575 -6.687560 20.500703 -16.719688 -2.795957 -0.808348 -1.132164 0.678281 5.149476 2.965207 1.041899 0.000000 -34.169800 9.376584 -1.094600 2.965091 1.395526 -1.422706 -12.970994 2.457360 1.780924 -1.985971 -0.204809 -3.036652 3.478298 -1.317900 0.000000 -41.179599 0.043999 -5.505284 -4.860415 -0.287241 -5.651428 -3.916839 -7.482978 -5.600408 -2.643103 11.444543 -6.265988 -0.350649 -2.133143 -0.254986 2.078646 0.000000 0.000000 0.000000 17.413073 -2.253231 -0.184077 -0.115123 -71.567959 -64.660635 3.863716 -7.068623 -0.108684 13.680889 0.363244 -0.010958 -0.240138 0.447085 -0.000000 0.000000 0.000000 0.000000 0.000000 0.000000 0.000000 2.021523 -4.031372 -4.896018 92.365338 23.645844 39.949863 -178.129957 57.336398 179.871811 -10.035884 10.409330 -1.010209 0.135823 -0.897205 -0.000000 0.000000 0.000000 0.000000 0.000000 0.000000 0.000000 
3.728331 17.312235 1.190691 177.342837 -78.971449 -166.372349 -11.670309 2.656308 0.548425 -6.804863 20.429484 -16.658645 -2.803246 -0.814388 -1.141043 0.673377 5.170717 3.067571 1.056500 -0.000000 -34.235900 9.377069 -1.097130 2.905783 1.223922 -1.412287 -12.839437 2.433734 1.783028 -2.247855 -0.216689 -3.091696 3.532283 -1.330800 0.000001 -40.944500 0.036911 -5.441818 -4.670472 -0.215328 -5.573306 -4.046683 -7.203285 -5.600869 -3.098752 11.143486 -6.668433 -0.467794 -2.166648 -0.255927 2.055925 0.000000 0.000000 0.000000 16.856734 0.152289 -1.949063 -16.147854 -73.251860 -45.718938 4.892803 -12.891789 -0.120396 13.537846 1.015440 0.061988 -0.190331 0.494230 -0.000000 0.000000 0.000000 0.000000 0.000000 0.000000 0.000000 1.474570 -4.520690 -4.735249 92.437009 23.003779 39.947904 -178.135688 56.972485 179.872256 -9.949024 10.404168 -1.001320 0.134823 -0.899925 -0.000000 0.000000 0.000000 0.000000 0.000000 0.000000 0.000000 
3.712211 17.312768 1.180825 176.682930 -79.011128 -165.621500 -11.668634 2.590580 0.412617 -6.877688 20.505907 -16.589900 -2.821560 -0.835877 -1.062482 0.667146 5.206657 3.082565 1.066500 0.000000 -34.333100 9.392550 -1.133814 2.884838 1.077689 -1.308836 -12.716380 2.409330 1.770503 -2.490719 -0.220130 -3.064830 3.554696 -1.319600 0.000000 -40.723800 0.064954 -5.133718 -4.487851 -0.208365 -5.251327 -4.135472 -7.108699 -5.334732 -3.313063 11.014486 -7.100674 -0.733487 -2.165334 -0.252763 1.983953 0.000000 0.000000 0.000000 15.736089 2.874690 -2.963087 -32.281797 -74.409088 -27.363425 5.665564 -20.604142 -0.142234 13.556624 1.509508 0.109931 -0.124256 0.590869 -0.000000 0.000000 0.000000 0.000000 0.000000 0.000000 0.000000 1.112229 -5.350264 -4.626602 92.330204 22.291114 39.689183 -178.039709 56.375599 179.871687 -9.923502 10.427670 -1.000203 0.128664 -0.898412 -0.000000 0.000000 0.000000 0.000000 0.000000 0.000000 0.000000 
3.695185 17.310633 1.170808 176.256007 -79.001765 -165.302941 -11.660369 2.561854 0.357831 -6.900452 20.741244 -16.475005 -2.841015 -0.862558 -0.898206 0.662682 5.257710 3.006617 1.070200 -0.000000 -34.461500 9.407619 -1.230871 2.996588 0.960844 -1.149245 -12.549371 2.389853 1.752344 -2.666208 -0.210863 -2.951170 3.537987 -1.286100 0.000000 -40.536500 0.277589 -4.639915 -4.599045 -0.299242 -4.783910 -4.092858 -7.452837 -4.840811 -2.959022 10.880172 -7.492592 -0.836816 -2.198259 -0.253490 1.947823 0.000000 0.000000 0.000000 14.061350 4.598128 -2.954077 -41.851236 -73.874133 -16.328029 4.972049 -30.763909 -0.161178 13.245260 1.319827 0.072586 -0.061329 0.702450 -0.000000 0.000000 0.000000 0.000000 0.000000 0.000000 0.000000 0.977763 -5.963472 -4.501467 92.166917 21.643206 39.140551 -177.845898 55.809566 179.868462 -9.960837 10.465805 -1.006528 0.116976 -0.902989 -0.000000 0.000000 0.000000 0.000000 0.000000 0.000000 0.000000 
3.677372 17.305832 1.161152 176.106719 -78.890012 -165.378833 -11.650375 2.557240 0.352933 -6.876150 21.104206 -16.348347 -2.857984 -0.885625 -0.661521 0.661758 5.319651 2.840584 1.065400 -0.000000 -34.618800 9.417455 -1.354326 3.179134 0.885226 -0.947014 -12.384304 2.379370 1.731401 -2.750588 -0.190901 -2.762485 3.476333 -1.233500 0.000000 -40.397500 0.623899 -4.092498 -4.868097 -0.418906 -4.290770 -4.020332 -7.994815 -4.284606 -2.491462 10.696555 -7.829238 -0.660031 -2.291957 -0.261673 1.988985 0.000000 0.000000 0.000000 12.279377 5.003952 -2.748003 -46.356031 -71.278418 -10.734519 3.491732 -42.972859 -0.162671 12.117926 0.298987 -0.050541 -0.000476 0.789391 -0.000000 0.000000 0.000000 0.000000 0.000000 0.000000 0.000000 0.956591 -6.253689 -4.274071 91.936737 21.000911 38.448446 -177.656415 55.337255 179.863507 -10.049136 10.509193 -1.019450 0.107335 -0.916462 -0.000000 0.000000 0.000000 0.000000 0.000000 0.000000 0.000000 
3.659134 17.298606 1.152625 176.271732 -78.709233 -165.774826 -11.639757 2.547826 0.341072 -6.803301 21.549587 -16.247352 -2.874401 -0.905802 -0.370230 0.662810 5.376168 2.593855 1.049899 -0.000000 -34.801000 9.422250 -1.477092 3.364317 0.864628 -0.720751 -12.266969 2.378298 1.706359 -2.737511 -0.164603 -2.519831 3.365833 -1.166100 -0.000000 -40.315900 1.003797 -3.540965 -5.127962 -0.526452 -3.797621 -3.960804 -8.524095 -3.723436 -2.105196 10.532281 -8.125215 -0.373761 -2.419598 -0.273391 2.060884 0.000000 0.000000 0.000000 10.541092 4.654415 -2.546819 -48.835580 -67.668009 -7.426634 1.994975 -55.824875 -0.145156 10.124505 -1.248815 -0.182432 0.050139 0.847433 -0.000000 0.000000 0.000000 0.000000 0.000000 0.000000 0.000000 0.998980 -6.419901 -3.989615 91.604907 20.361143 37.708194 -177.512045 54.879092 179.858318 -10.174092 10.554161 -1.037111 0.102799 -0.933753 -0.000000 0.000000 0.000000 0.000000 0.000000 0.000000 0.000000 
3.641092 17.289337 1.145947 176.730230 -78.493771 -166.437945 -11.632251 2.525496 0.308316 -6.679416 22.045473 -16.178753 -2.890096 -0.922297 -0.043152 0.664446 5.411893 2.281439 1.022300 -0.000000 -35.001100 9.419104 -1.587401 3.525459 0.906347 -0.494289 -12.205349 2.386727 1.676994 -2.622180 -0.134876 -2.242631 3.208660 -1.089100 0.000000 -40.291300 1.385923 -3.020384 -5.326159 -0.603094 -3.330662 -3.904588 -8.956291 -3.190064 -1.766280 10.392315 -8.391982 -0.116014 -2.566810 -0.285785 2.124107 0.000000 0.000000 0.000000 8.941604 4.117952 -2.342333 -50.931791 -63.840521 -4.660674 0.844174 -68.218138 -0.115236 7.633834 -2.833474 -0.242565 0.080082 0.887199 -0.000000 0.000000 0.000000 0.000000 0.000000 0.000000 0.000000 1.073667 -6.545632 -3.707982 91.200273 19.796399 37.000253 -177.431756 54.437674 179.853776 -10.317001 10.593878 -1.056828 0.104271 -0.952009 -0.000000 0.000000 0.000000 0.000000 0.000000 0.000000 0.000000 
3.623715 17.278693 1.141520 177.425844 -78.267821 -167.308884 -11.631115 2.491187 0.258572 -6.506191 22.563591 -16.135717 -2.904032 -0.933885 0.297095 0.665736 5.417953 1.925078 0.983700 0.000000 -35.208900 9.405612 -1.679803 3.653378 1.010345 -0.289391 -12.193246 2.404098 1.643851 -2.406652 -0.104078 -1.949930 3.012567 -1.008300 0.000000 -40.316099 1.770729 -2.558404 -5.456055 -0.640680 -2.916327 -3.841169 -9.264128 -2.711700 -1.428743 10.244340 -8.634807 0.050872 -2.728997 -0.297754 2.161274 0.000000 0.000000 0.000000 7.624513 3.757278 -2.164729 -53.392405 -60.047602 -1.789948 0.205393 -79.618644 -0.080148 5.096042 -4.095172 -0.215736 0.088879 0.920006 -0.000000 0.000000 0.000000 0.000000 0.000000 0.000000 0.000000 1.143570 -6.651570 -3.461796 90.780001 19.366508 36.390300 -177.423740 54.059461 179.850321 -10.455587 10.618962 -1.075412 0.111289 -0.969999 -0.000000 0.000000 0.000000 0.000000 0.000000 0.000000 0.000000 
3.607207 17.267434 1.139288 178.294572 -78.050706 -168.320863 -11.636936 2.446933 0.197283 -6.291615 23.075142 -16.109821 -2.915610 -0.940408 0.624364 0.665998 5.392030 1.551259 0.937200 -0.000000 -35.411800 9.382242 -1.751182 3.744015 1.169729 -0.119588 -12.223157 2.428769 1.607747 -2.103001 -0.074630 -1.661169 2.788412 -0.929100 -0.000000 -40.377700 2.155921 -2.171512 -5.518959 -0.636851 -2.570664 -3.771052 -9.431665 -2.307020 -1.089173 10.051200 -8.855842 0.109886 -2.903978 -0.309096 2.168343 0.000000 0.000000 0.000000 6.742015 3.719079 -2.080810 -56.585704 -56.163757 1.273557 0.129214 -89.853681 -0.044827 2.809095 -4.920498 -0.135617 0.082364 0.952419 -0.000000 0.000000 0.000000 0.000000 0.000000 0.000000 0.000000 1.167623 -6.752210 -3.261053 90.397910 19.090230 35.918467 -177.486577 53.793223 179.848192 -10.566391 10.620428 -1.089277 0.122352 -0.986781 -0.000000 0.000000 0.000000 0.000000 0.000000 0.000000 0.000000 
3.591521 17.256473 1.138741 179.263854 -77.858354 -169.389458 -11.647498 2.393328 0.126941 -6.049758 23.541274 -16.087812 -2.923588 -0.943428 0.903659 0.666169 5.349807 1.191030 0.889600 -0.000000 -35.597600 9.352845 -1.798826 3.793164 1.369709 0.008416 -12.290602 2.457838 1.569259 -1.733162 -0.048826 -1.393772 2.549376 -0.856000 -0.000000 -40.461800 2.516899 -1.866646 -5.511825 -0.593025 -2.297573 -3.701330 -9.434466 -1.985748 -0.773047 9.791132 -9.068215 0.051863 -3.088096 -0.319726 2.143668 0.000000 0.000000 0.000000 6.389773 4.021686 -2.158295 -60.634815 -51.920506 4.360409 -179.428674 -81.118931 179.987597 0.907715 -5.384259 -0.041895 0.068241 0.986803 -0.000000 0.000000 0.000000 0.000000 0.000000 0.000000 0.000000 1.111246 -6.884264 -3.106549 90.089595 18.958009 35.606486 -177.613391 53.664288 179.847582 -10.631081 10.587978 -1.095238 0.135834 -1.001106 -0.000000 0.000000 0.000000 0.000000 0.000000 0.000000 0.000000 
